<?xml version="1.0" encoding="UTF-8" standalone="no"?>
<!DOCTYPE svg PUBLIC "-//W3C//DTD SVG 1.1//EN"
 "http://www.w3.org/Graphics/SVG/1.1/DTD/svg11.dtd">
<!-- Generated by graphviz version 6.0.1 (20220911.1526)
 -->
<!-- Title: jacop Pages: 1 -->
<svg width="509pt" height="206pt"
 viewBox="0.00 0.00 508.50 206.00" xmlns="http://www.w3.org/2000/svg" xmlns:xlink="http://www.w3.org/1999/xlink">
<g id="graph0" class="graph" transform="scale(1 1) rotate(0) translate(4 202)">
<title>jacop</title>
<polygon fill="white" stroke="none" points="-4,4 -4,-202 504.5,-202 504.5,4 -4,4"/>
<!-- org.jacop:jacop:jar:compile -->
<g id="node1" class="node">
<title>org.jacop:jacop:jar:compile</title>
<path fill="none" stroke="black" d="M276,-198C276,-198 244,-198 244,-198 238,-198 232,-192 232,-186 232,-186 232,-168 232,-168 232,-162 238,-156 244,-156 244,-156 276,-156 276,-156 282,-156 288,-162 288,-168 288,-168 288,-186 288,-186 288,-192 282,-198 276,-198"/>
<text text-anchor="start" x="240" y="-187" font-family="Helvetica,sans-Serif" font-size="10.00">org.jacop</text>
<text text-anchor="start" x="243.5" y="-173.8" font-family="Helvetica,sans-Serif" font-size="14.00">jacop</text>
<text text-anchor="start" x="246" y="-163" font-family="Helvetica,sans-Serif" font-size="10.00">4.10.0</text>
</g>
<!-- org.mockito:mockito&#45;all:jar:compile -->
<g id="node2" class="node">
<title>org.mockito:mockito&#45;all:jar:compile</title>
<path fill="none" stroke="black" d="M70,-120C70,-120 12,-120 12,-120 6,-120 0,-114 0,-108 0,-108 0,-90 0,-90 0,-84 6,-78 12,-78 12,-78 70,-78 70,-78 76,-78 82,-84 82,-90 82,-90 82,-108 82,-108 82,-114 76,-120 70,-120"/>
<text text-anchor="start" x="15" y="-109" font-family="Helvetica,sans-Serif" font-size="10.00">org.mockito</text>
<text text-anchor="start" x="8" y="-95.8" font-family="Helvetica,sans-Serif" font-size="14.00">mockito&#45;all</text>
<text text-anchor="start" x="24.5" y="-85" font-family="Helvetica,sans-Serif" font-size="10.00">1.10.19</text>
</g>
<!-- org.jacop:jacop:jar:compile&#45;&gt;org.mockito:mockito&#45;all:jar:compile -->
<g id="edge1" class="edge">
<title>org.jacop:jacop:jar:compile&#45;&gt;org.mockito:mockito&#45;all:jar:compile</title>
<path fill="none" stroke="black" d="M231.71,-167.2C199.84,-157.17 146.33,-139.94 91.63,-120.14"/>
<polygon fill="black" stroke="black" points="92.72,-116.81 82.12,-116.68 90.32,-123.39 92.72,-116.81"/>
</g>
<!-- org.scala&#45;lang:scala&#45;library:jar:compile -->
<g id="node3" class="node">
<title>org.scala&#45;lang:scala&#45;library:jar:compile</title>
<path fill="none" stroke="black" d="M177.5,-120C177.5,-120 112.5,-120 112.5,-120 106.5,-120 100.5,-114 100.5,-108 100.5,-108 100.5,-90 100.5,-90 100.5,-84 106.5,-78 112.5,-78 112.5,-78 177.5,-78 177.5,-78 183.5,-78 189.5,-84 189.5,-90 189.5,-90 189.5,-108 189.5,-108 189.5,-114 183.5,-120 177.5,-120"/>
<text text-anchor="start" x="114.5" y="-109" font-family="Helvetica,sans-Serif" font-size="10.00">org.scala&#45;lang</text>
<text text-anchor="start" x="108.5" y="-95.8" font-family="Helvetica,sans-Serif" font-size="14.00">scala&#45;library</text>
<text text-anchor="start" x="131" y="-85" font-family="Helvetica,sans-Serif" font-size="10.00">2.13.1</text>
</g>
<!-- org.jacop:jacop:jar:compile&#45;&gt;org.scala&#45;lang:scala&#45;library:jar:compile -->
<g id="edge2" class="edge">
<title>org.jacop:jacop:jar:compile&#45;&gt;org.scala&#45;lang:scala&#45;library:jar:compile</title>
<path fill="none" stroke="black" d="M231.87,-157.41C217.5,-147.92 199.8,-136.22 184.13,-125.86"/>
<polygon fill="black" stroke="black" points="185.94,-122.86 175.67,-120.27 182.08,-128.7 185.94,-122.86"/>
</g>
<!-- org.scala&#45;lang:scala&#45;compiler:jar:compile -->
<g id="node4" class="node">
<title>org.scala&#45;lang:scala&#45;compiler:jar:compile</title>
<path fill="none" stroke="black" d="M300,-120C300,-120 220,-120 220,-120 214,-120 208,-114 208,-108 208,-108 208,-90 208,-90 208,-84 214,-78 220,-78 220,-78 300,-78 300,-78 306,-78 312,-84 312,-90 312,-90 312,-108 312,-108 312,-114 306,-120 300,-120"/>
<text text-anchor="start" x="229.5" y="-109" font-family="Helvetica,sans-Serif" font-size="10.00">org.scala&#45;lang</text>
<text text-anchor="start" x="216" y="-95.8" font-family="Helvetica,sans-Serif" font-size="14.00">scala&#45;compiler</text>
<text text-anchor="start" x="246" y="-85" font-family="Helvetica,sans-Serif" font-size="10.00">2.13.1</text>
</g>
<!-- org.jacop:jacop:jar:compile&#45;&gt;org.scala&#45;lang:scala&#45;compiler:jar:compile -->
<g id="edge6" class="edge">
<title>org.jacop:jacop:jar:compile&#45;&gt;org.scala&#45;lang:scala&#45;compiler:jar:compile</title>
<path fill="none" stroke="black" d="M260,-155.63C260,-147.82 260,-138.73 260,-130.18"/>
<polygon fill="black" stroke="black" points="263.5,-130.16 260,-120.16 256.5,-130.16 263.5,-130.16"/>
</g>
<!-- org.slf4j:slf4j&#45;api:jar:compile -->
<g id="node8" class="node">
<title>org.slf4j:slf4j&#45;api:jar:compile</title>
<path fill="none" stroke="black" d="M381.5,-120C381.5,-120 342.5,-120 342.5,-120 336.5,-120 330.5,-114 330.5,-108 330.5,-108 330.5,-90 330.5,-90 330.5,-84 336.5,-78 342.5,-78 342.5,-78 381.5,-78 381.5,-78 387.5,-78 393.5,-84 393.5,-90 393.5,-90 393.5,-108 393.5,-108 393.5,-114 387.5,-120 381.5,-120"/>
<text text-anchor="start" x="344.5" y="-109" font-family="Helvetica,sans-Serif" font-size="10.00">org.slf4j</text>
<text text-anchor="start" x="338.5" y="-95.8" font-family="Helvetica,sans-Serif" font-size="14.00">slf4j&#45;api</text>
<text text-anchor="start" x="348" y="-85" font-family="Helvetica,sans-Serif" font-size="10.00">1.7.24</text>
</g>
<!-- org.jacop:jacop:jar:compile&#45;&gt;org.slf4j:slf4j&#45;api:jar:compile -->
<g id="edge7" class="edge">
<title>org.jacop:jacop:jar:compile&#45;&gt;org.slf4j:slf4j&#45;api:jar:compile</title>
<path fill="none" stroke="black" d="M287.07,-155.83C299.17,-146.81 313.6,-136.06 326.55,-126.41"/>
<polygon fill="black" stroke="black" points="328.88,-129.04 334.81,-120.26 324.7,-123.43 328.88,-129.04"/>
</g>
<!-- org.slf4j:slf4j&#45;log4j12:jar:compile -->
<g id="node9" class="node">
<title>org.slf4j:slf4j&#45;log4j12:jar:compile</title>
<path fill="none" stroke="black" d="M488.5,-120C488.5,-120 423.5,-120 423.5,-120 417.5,-120 411.5,-114 411.5,-108 411.5,-108 411.5,-90 411.5,-90 411.5,-84 417.5,-78 423.5,-78 423.5,-78 488.5,-78 488.5,-78 494.5,-78 500.5,-84 500.5,-90 500.5,-90 500.5,-108 500.5,-108 500.5,-114 494.5,-120 488.5,-120"/>
<text text-anchor="start" x="438.5" y="-109" font-family="Helvetica,sans-Serif" font-size="10.00">org.slf4j</text>
<text text-anchor="start" x="419.5" y="-95.8" font-family="Helvetica,sans-Serif" font-size="14.00">slf4j&#45;log4j12</text>
<text text-anchor="start" x="442" y="-85" font-family="Helvetica,sans-Serif" font-size="10.00">1.7.24</text>
</g>
<!-- org.jacop:jacop:jar:compile&#45;&gt;org.slf4j:slf4j&#45;log4j12:jar:compile -->
<g id="edge9" class="edge">
<title>org.jacop:jacop:jar:compile&#45;&gt;org.slf4j:slf4j&#45;log4j12:jar:compile</title>
<path fill="none" stroke="black" d="M288.08,-165.11C317.62,-153.66 364.84,-135.35 401.7,-121.06"/>
<polygon fill="black" stroke="black" points="403.25,-124.21 411.31,-117.33 400.72,-117.68 403.25,-124.21"/>
</g>
<!-- org.scala&#45;lang:scala&#45;reflect:jar:compile -->
<g id="node5" class="node">
<title>org.scala&#45;lang:scala&#45;reflect:jar:compile</title>
<path fill="none" stroke="black" d="M202.5,-42C202.5,-42 137.5,-42 137.5,-42 131.5,-42 125.5,-36 125.5,-30 125.5,-30 125.5,-12 125.5,-12 125.5,-6 131.5,0 137.5,0 137.5,0 202.5,0 202.5,0 208.5,0 214.5,-6 214.5,-12 214.5,-12 214.5,-30 214.5,-30 214.5,-36 208.5,-42 202.5,-42"/>
<text text-anchor="start" x="139.5" y="-31" font-family="Helvetica,sans-Serif" font-size="10.00">org.scala&#45;lang</text>
<text text-anchor="start" x="133.5" y="-17.8" font-family="Helvetica,sans-Serif" font-size="14.00">scala&#45;reflect</text>
<text text-anchor="start" x="156" y="-7" font-family="Helvetica,sans-Serif" font-size="10.00">2.13.1</text>
</g>
<!-- org.scala&#45;lang:scala&#45;compiler:jar:compile&#45;&gt;org.scala&#45;lang:scala&#45;reflect:jar:compile -->
<g id="edge3" class="edge">
<title>org.scala&#45;lang:scala&#45;compiler:jar:compile&#45;&gt;org.scala&#45;lang:scala&#45;reflect:jar:compile</title>
<path fill="none" stroke="black" d="M235.88,-77.63C225.41,-68.79 212.99,-58.3 201.78,-48.84"/>
<polygon fill="black" stroke="black" points="203.77,-45.94 193.87,-42.16 199.26,-51.29 203.77,-45.94"/>
</g>
<!-- jline:jline:jar:compile -->
<g id="node6" class="node">
<title>jline:jline:jar:compile</title>
<path fill="none" stroke="black" d="M275,-42C275,-42 245,-42 245,-42 239,-42 233,-36 233,-30 233,-30 233,-12 233,-12 233,-6 239,0 245,0 245,0 275,0 275,0 281,0 287,-6 287,-12 287,-12 287,-30 287,-30 287,-36 281,-42 275,-42"/>
<text text-anchor="start" x="251" y="-31" font-family="Helvetica,sans-Serif" font-size="10.00">jline</text>
<text text-anchor="start" x="247.5" y="-17.8" font-family="Helvetica,sans-Serif" font-size="14.00">jline</text>
<text text-anchor="start" x="246" y="-7" font-family="Helvetica,sans-Serif" font-size="10.00">2.14.6</text>
</g>
<!-- org.scala&#45;lang:scala&#45;compiler:jar:compile&#45;&gt;jline:jline:jar:compile -->
<g id="edge4" class="edge">
<title>org.scala&#45;lang:scala&#45;compiler:jar:compile&#45;&gt;jline:jline:jar:compile</title>
<path fill="none" stroke="black" d="M260,-77.63C260,-69.82 260,-60.73 260,-52.18"/>
<polygon fill="black" stroke="black" points="263.5,-52.16 260,-42.16 256.5,-52.16 263.5,-52.16"/>
</g>
<!-- org.fusesource.jansi:jansi:jar:compile -->
<g id="node7" class="node">
<title>org.fusesource.jansi:jansi:jar:compile</title>
<path fill="none" stroke="black" d="M397,-42C397,-42 317,-42 317,-42 311,-42 305,-36 305,-30 305,-30 305,-12 305,-12 305,-6 311,0 317,0 317,0 397,0 397,0 403,0 409,-6 409,-12 409,-12 409,-30 409,-30 409,-36 403,-42 397,-42"/>
<text text-anchor="start" x="313" y="-31" font-family="Helvetica,sans-Serif" font-size="10.00">org.fusesource.jansi</text>
<text text-anchor="start" x="343" y="-17.8" font-family="Helvetica,sans-Serif" font-size="14.00">jansi</text>
<text text-anchor="start" x="347.5" y="-7" font-family="Helvetica,sans-Serif" font-size="10.00">1.12</text>
</g>
<!-- org.scala&#45;lang:scala&#45;compiler:jar:compile&#45;&gt;org.fusesource.jansi:jansi:jar:compile -->
<g id="edge5" class="edge">
<title>org.scala&#45;lang:scala&#45;compiler:jar:compile&#45;&gt;org.fusesource.jansi:jansi:jar:compile</title>
<path fill="none" stroke="black" d="M285.74,-77.83C297.14,-68.9 310.71,-58.27 322.94,-48.69"/>
<polygon fill="black" stroke="black" points="325.43,-51.18 331.14,-42.26 321.11,-45.67 325.43,-51.18"/>
</g>
<!-- log4j:log4j:jar:compile -->
<g id="node10" class="node">
<title>log4j:log4j:jar:compile</title>
<path fill="none" stroke="black" d="M471,-42C471,-42 441,-42 441,-42 435,-42 429,-36 429,-30 429,-30 429,-12 429,-12 429,-6 435,0 441,0 441,0 471,0 471,0 477,0 483,-6 483,-12 483,-12 483,-30 483,-30 483,-36 477,-42 471,-42"/>
<text text-anchor="start" x="445.5" y="-31" font-family="Helvetica,sans-Serif" font-size="10.00">log4j</text>
<text text-anchor="start" x="441.5" y="-17.8" font-family="Helvetica,sans-Serif" font-size="14.00">log4j</text>
<text text-anchor="start" x="442" y="-7" font-family="Helvetica,sans-Serif" font-size="10.00">1.2.17</text>
</g>
<!-- org.slf4j:slf4j&#45;log4j12:jar:compile&#45;&gt;log4j:log4j:jar:compile -->
<g id="edge8" class="edge">
<title>org.slf4j:slf4j&#45;log4j12:jar:compile&#45;&gt;log4j:log4j:jar:compile</title>
<path fill="none" stroke="black" d="M456,-77.63C456,-69.82 456,-60.73 456,-52.18"/>
<polygon fill="black" stroke="black" points="459.5,-52.16 456,-42.16 452.5,-52.16 459.5,-52.16"/>
</g>
</g>
</svg>
