<?xml version="1.0" encoding="UTF-8" standalone="no"?>
<!DOCTYPE svg PUBLIC "-//W3C//DTD SVG 1.1//EN"
 "http://www.w3.org/Graphics/SVG/1.1/DTD/svg11.dtd">
<!-- Generated by graphviz version 6.0.1 (20220911.1526)
 -->
<!-- Title: jacop Pages: 1 -->
<svg width="427pt" height="128pt"
 viewBox="0.00 0.00 426.50 128.00" xmlns="http://www.w3.org/2000/svg" xmlns:xlink="http://www.w3.org/1999/xlink">
<g id="graph0" class="graph" transform="scale(1 1) rotate(0) translate(4 124)">
<title>jacop</title>
<polygon fill="white" stroke="none" points="-4,4 -4,-124 422.5,-124 422.5,4 -4,4"/>
<!-- org.jacop:jacop:jar:compile -->
<g id="node1" class="node">
<title>org.jacop:jacop:jar:compile</title>
<path fill="none" stroke="black" d="M219.5,-120C219.5,-120 187.5,-120 187.5,-120 181.5,-120 175.5,-114 175.5,-108 175.5,-108 175.5,-90 175.5,-90 175.5,-84 181.5,-78 187.5,-78 187.5,-78 219.5,-78 219.5,-78 225.5,-78 231.5,-84 231.5,-90 231.5,-90 231.5,-108 231.5,-108 231.5,-114 225.5,-120 219.5,-120"/>
<text text-anchor="start" x="183.5" y="-109" font-family="Helvetica,sans-Serif" font-size="10.00">org.jacop</text>
<text text-anchor="start" x="187" y="-95.8" font-family="Helvetica,sans-Serif" font-size="14.00">jacop</text>
<text text-anchor="start" x="189.5" y="-85" font-family="Helvetica,sans-Serif" font-size="10.00">4.10.0</text>
</g>
<!-- org.scala&#45;lang:scala&#45;library:jar:compile -->
<g id="node2" class="node">
<title>org.scala&#45;lang:scala&#45;library:jar:compile</title>
<path fill="none" stroke="black" d="M77,-42C77,-42 12,-42 12,-42 6,-42 0,-36 0,-30 0,-30 0,-12 0,-12 0,-6 6,0 12,0 12,0 77,0 77,0 83,0 89,-6 89,-12 89,-12 89,-30 89,-30 89,-36 83,-42 77,-42"/>
<text text-anchor="start" x="14" y="-31" font-family="Helvetica,sans-Serif" font-size="10.00">org.scala&#45;lang</text>
<text text-anchor="start" x="8" y="-17.8" font-family="Helvetica,sans-Serif" font-size="14.00">scala&#45;library</text>
<text text-anchor="start" x="30.5" y="-7" font-family="Helvetica,sans-Serif" font-size="10.00">2.13.1</text>
</g>
<!-- org.jacop:jacop:jar:compile&#45;&gt;org.scala&#45;lang:scala&#45;library:jar:compile -->
<g id="edge1" class="edge">
<title>org.jacop:jacop:jar:compile&#45;&gt;org.scala&#45;lang:scala&#45;library:jar:compile</title>
<path fill="none" stroke="black" d="M175.44,-84.59C153.43,-74.07 122.2,-59.14 95.76,-46.5"/>
<polygon fill="black" stroke="black" points="97.16,-43.29 86.63,-42.14 94.14,-49.61 97.16,-43.29"/>
</g>
<!-- org.scala&#45;lang:scala&#45;reflect:jar:compile -->
<g id="node3" class="node">
<title>org.scala&#45;lang:scala&#45;reflect:jar:compile</title>
<path fill="none" stroke="black" d="M184,-42C184,-42 119,-42 119,-42 113,-42 107,-36 107,-30 107,-30 107,-12 107,-12 107,-6 113,0 119,0 119,0 184,0 184,0 190,0 196,-6 196,-12 196,-12 196,-30 196,-30 196,-36 190,-42 184,-42"/>
<text text-anchor="start" x="121" y="-31" font-family="Helvetica,sans-Serif" font-size="10.00">org.scala&#45;lang</text>
<text text-anchor="start" x="115" y="-17.8" font-family="Helvetica,sans-Serif" font-size="14.00">scala&#45;reflect</text>
<text text-anchor="start" x="137.5" y="-7" font-family="Helvetica,sans-Serif" font-size="10.00">2.13.1</text>
</g>
<!-- org.jacop:jacop:jar:compile&#45;&gt;org.scala&#45;lang:scala&#45;reflect:jar:compile -->
<g id="edge2" class="edge">
<title>org.jacop:jacop:jar:compile&#45;&gt;org.scala&#45;lang:scala&#45;reflect:jar:compile</title>
<path fill="none" stroke="black" d="M189.56,-77.63C183.87,-69.3 177.17,-59.52 171,-50.5"/>
<polygon fill="black" stroke="black" points="173.83,-48.44 165.29,-42.16 168.05,-52.39 173.83,-48.44"/>
</g>
<!-- org.mockito:mockito&#45;all:jar:compile -->
<g id="node4" class="node">
<title>org.mockito:mockito&#45;all:jar:compile</title>
<path fill="none" stroke="black" d="M284.5,-42C284.5,-42 226.5,-42 226.5,-42 220.5,-42 214.5,-36 214.5,-30 214.5,-30 214.5,-12 214.5,-12 214.5,-6 220.5,0 226.5,0 226.5,0 284.5,0 284.5,0 290.5,0 296.5,-6 296.5,-12 296.5,-12 296.5,-30 296.5,-30 296.5,-36 290.5,-42 284.5,-42"/>
<text text-anchor="start" x="229.5" y="-31" font-family="Helvetica,sans-Serif" font-size="10.00">org.mockito</text>
<text text-anchor="start" x="222.5" y="-17.8" font-family="Helvetica,sans-Serif" font-size="14.00">mockito&#45;all</text>
<text text-anchor="start" x="239" y="-7" font-family="Helvetica,sans-Serif" font-size="10.00">1.10.19</text>
</g>
<!-- org.jacop:jacop:jar:compile&#45;&gt;org.mockito:mockito&#45;all:jar:compile -->
<g id="edge3" class="edge">
<title>org.jacop:jacop:jar:compile&#45;&gt;org.mockito:mockito&#45;all:jar:compile</title>
<path fill="none" stroke="black" d="M217.44,-77.63C223.13,-69.3 229.83,-59.52 236,-50.5"/>
<polygon fill="black" stroke="black" points="238.95,-52.39 241.71,-42.16 233.17,-48.44 238.95,-52.39"/>
</g>
<!-- org.scala&#45;lang:scala&#45;compiler:jar:compile -->
<g id="node5" class="node">
<title>org.scala&#45;lang:scala&#45;compiler:jar:compile</title>
<path fill="none" stroke="black" d="M406.5,-42C406.5,-42 326.5,-42 326.5,-42 320.5,-42 314.5,-36 314.5,-30 314.5,-30 314.5,-12 314.5,-12 314.5,-6 320.5,0 326.5,0 326.5,0 406.5,0 406.5,0 412.5,0 418.5,-6 418.5,-12 418.5,-12 418.5,-30 418.5,-30 418.5,-36 412.5,-42 406.5,-42"/>
<text text-anchor="start" x="336" y="-31" font-family="Helvetica,sans-Serif" font-size="10.00">org.scala&#45;lang</text>
<text text-anchor="start" x="322.5" y="-17.8" font-family="Helvetica,sans-Serif" font-size="14.00">scala&#45;compiler</text>
<text text-anchor="start" x="352.5" y="-7" font-family="Helvetica,sans-Serif" font-size="10.00">2.13.1</text>
</g>
<!-- org.jacop:jacop:jar:compile&#45;&gt;org.scala&#45;lang:scala&#45;compiler:jar:compile -->
<g id="edge4" class="edge">
<title>org.jacop:jacop:jar:compile&#45;&gt;org.scala&#45;lang:scala&#45;compiler:jar:compile</title>
<path fill="none" stroke="black" d="M231.52,-84.94C254.26,-74.33 286.93,-59.1 314.44,-46.27"/>
<polygon fill="black" stroke="black" points="315.96,-49.43 323.55,-42.03 313,-43.08 315.96,-49.43"/>
</g>
</g>
</svg>
