<?xml version="1.0" encoding="UTF-8" standalone="no"?>
<!DOCTYPE svg PUBLIC "-//W3C//DTD SVG 1.1//EN"
 "http://www.w3.org/Graphics/SVG/1.1/DTD/svg11.dtd">
<!-- Generated by graphviz version 6.0.1 (20220911.1526)
 -->
<!-- Title: jacop Pages: 1 -->
<svg width="581pt" height="226pt"
 viewBox="0.00 0.00 580.50 226.00" xmlns="http://www.w3.org/2000/svg" xmlns:xlink="http://www.w3.org/1999/xlink">
<g id="graph0" class="graph" transform="scale(1 1) rotate(0) translate(4 222)">
<title>jacop</title>
<polygon fill="white" stroke="none" points="-4,4 -4,-222 576.5,-222 576.5,4 -4,4"/>
<!-- org.jacop:jacop:jar:compile -->
<g id="node1" class="node">
<title>org.jacop:jacop:jar:compile</title>
<path fill="none" stroke="black" d="M290,-218C290,-218 258,-218 258,-218 252,-218 246,-212 246,-206 246,-206 246,-188 246,-188 246,-182 252,-176 258,-176 258,-176 290,-176 290,-176 296,-176 302,-182 302,-188 302,-188 302,-206 302,-206 302,-212 296,-218 290,-218"/>
<text text-anchor="start" x="254" y="-207" font-family="Helvetica,sans-Serif" font-size="10.00">org.jacop</text>
<text text-anchor="start" x="257.5" y="-193.8" font-family="Helvetica,sans-Serif" font-size="14.00">jacop</text>
<text text-anchor="start" x="260" y="-183" font-family="Helvetica,sans-Serif" font-size="10.00">4.10.0</text>
</g>
<!-- org.mockito:mockito&#45;all:jar:compile -->
<g id="node2" class="node">
<title>org.mockito:mockito&#45;all:jar:compile</title>
<path fill="none" stroke="black" d="M70,-135C70,-135 12,-135 12,-135 6,-135 0,-129 0,-123 0,-123 0,-105 0,-105 0,-99 6,-93 12,-93 12,-93 70,-93 70,-93 76,-93 82,-99 82,-105 82,-105 82,-123 82,-123 82,-129 76,-135 70,-135"/>
<text text-anchor="start" x="15" y="-124" font-family="Helvetica,sans-Serif" font-size="10.00">org.mockito</text>
<text text-anchor="start" x="8" y="-110.8" font-family="Helvetica,sans-Serif" font-size="14.00">mockito&#45;all</text>
<text text-anchor="start" x="24.5" y="-100" font-family="Helvetica,sans-Serif" font-size="10.00">1.10.19</text>
</g>
<!-- org.jacop:jacop:jar:compile&#45;&gt;org.mockito:mockito&#45;all:jar:compile -->
<g id="edge1" class="edge">
<title>org.jacop:jacop:jar:compile&#45;&gt;org.mockito:mockito&#45;all:jar:compile</title>
<path fill="none" stroke="black" d="M245.91,-188.97C209.56,-179.51 144.53,-161.4 91,-140 90.29,-139.72 89.58,-139.43 88.86,-139.13"/>
<polygon fill="black" stroke="black" points="90.03,-135.82 79.47,-135.03 87.23,-142.24 90.03,-135.82"/>
</g>
<!-- junit:junit:jar:test -->
<g id="node3" class="node">
<title>junit:junit:jar:test</title>
<path fill="none" stroke="black" d="M142,-140C142,-140 112,-140 112,-140 106,-140 100,-134 100,-128 100,-128 100,-100 100,-100 100,-94 106,-88 112,-88 112,-88 142,-88 142,-88 148,-88 154,-94 154,-100 154,-100 154,-128 154,-128 154,-134 148,-140 142,-140"/>
<text text-anchor="start" x="117.5" y="-129" font-family="Helvetica,sans-Serif" font-size="10.00">junit</text>
<text text-anchor="start" x="114.5" y="-115.8" font-family="Helvetica,sans-Serif" font-size="14.00">junit</text>
<text text-anchor="start" x="113" y="-105" font-family="Helvetica,sans-Serif" font-size="10.00">4.13.1</text>
<text text-anchor="start" x="115.5" y="-95" font-family="Helvetica,sans-Serif" font-size="10.00">(test)</text>
</g>
<!-- org.jacop:jacop:jar:compile&#45;&gt;junit:junit:jar:test -->
<g id="edge3" class="edge">
<title>org.jacop:jacop:jar:compile&#45;&gt;junit:junit:jar:test</title>
<path fill="none" stroke="black" d="M245.59,-183.02C222.81,-172.29 190.26,-156.23 163,-140 162.91,-139.95 162.82,-139.89 162.73,-139.84"/>
<polygon fill="black" stroke="black" points="164.59,-136.87 154.26,-134.51 160.86,-142.8 164.59,-136.87"/>
</g>
<!-- org.scala&#45;lang:scala&#45;library:jar:compile -->
<g id="node5" class="node">
<title>org.scala&#45;lang:scala&#45;library:jar:compile</title>
<path fill="none" stroke="black" d="M249.5,-135C249.5,-135 184.5,-135 184.5,-135 178.5,-135 172.5,-129 172.5,-123 172.5,-123 172.5,-105 172.5,-105 172.5,-99 178.5,-93 184.5,-93 184.5,-93 249.5,-93 249.5,-93 255.5,-93 261.5,-99 261.5,-105 261.5,-105 261.5,-123 261.5,-123 261.5,-129 255.5,-135 249.5,-135"/>
<text text-anchor="start" x="186.5" y="-124" font-family="Helvetica,sans-Serif" font-size="10.00">org.scala&#45;lang</text>
<text text-anchor="start" x="180.5" y="-110.8" font-family="Helvetica,sans-Serif" font-size="14.00">scala&#45;library</text>
<text text-anchor="start" x="203" y="-100" font-family="Helvetica,sans-Serif" font-size="10.00">2.13.1</text>
</g>
<!-- org.jacop:jacop:jar:compile&#45;&gt;org.scala&#45;lang:scala&#45;library:jar:compile -->
<g id="edge4" class="edge">
<title>org.jacop:jacop:jar:compile&#45;&gt;org.scala&#45;lang:scala&#45;library:jar:compile</title>
<path fill="none" stroke="black" d="M259.91,-175.98C252.99,-166.14 244.53,-154.13 236.96,-143.37"/>
<polygon fill="black" stroke="black" points="239.74,-141.24 231.13,-135.07 234.02,-145.27 239.74,-141.24"/>
</g>
<!-- org.scala&#45;lang:scala&#45;compiler:jar:compile -->
<g id="node6" class="node">
<title>org.scala&#45;lang:scala&#45;compiler:jar:compile</title>
<path fill="none" stroke="black" d="M372,-135C372,-135 292,-135 292,-135 286,-135 280,-129 280,-123 280,-123 280,-105 280,-105 280,-99 286,-93 292,-93 292,-93 372,-93 372,-93 378,-93 384,-99 384,-105 384,-105 384,-123 384,-123 384,-129 378,-135 372,-135"/>
<text text-anchor="start" x="301.5" y="-124" font-family="Helvetica,sans-Serif" font-size="10.00">org.scala&#45;lang</text>
<text text-anchor="start" x="288" y="-110.8" font-family="Helvetica,sans-Serif" font-size="14.00">scala&#45;compiler</text>
<text text-anchor="start" x="318" y="-100" font-family="Helvetica,sans-Serif" font-size="10.00">2.13.1</text>
</g>
<!-- org.jacop:jacop:jar:compile&#45;&gt;org.scala&#45;lang:scala&#45;compiler:jar:compile -->
<g id="edge8" class="edge">
<title>org.jacop:jacop:jar:compile&#45;&gt;org.scala&#45;lang:scala&#45;compiler:jar:compile</title>
<path fill="none" stroke="black" d="M288.34,-175.98C295.38,-166.14 303.98,-154.13 311.69,-143.37"/>
<polygon fill="black" stroke="black" points="314.65,-145.24 317.63,-135.07 308.96,-141.17 314.65,-145.24"/>
</g>
<!-- org.slf4j:slf4j&#45;api:jar:compile -->
<g id="node10" class="node">
<title>org.slf4j:slf4j&#45;api:jar:compile</title>
<path fill="none" stroke="black" d="M453.5,-135C453.5,-135 414.5,-135 414.5,-135 408.5,-135 402.5,-129 402.5,-123 402.5,-123 402.5,-105 402.5,-105 402.5,-99 408.5,-93 414.5,-93 414.5,-93 453.5,-93 453.5,-93 459.5,-93 465.5,-99 465.5,-105 465.5,-105 465.5,-123 465.5,-123 465.5,-129 459.5,-135 453.5,-135"/>
<text text-anchor="start" x="416.5" y="-124" font-family="Helvetica,sans-Serif" font-size="10.00">org.slf4j</text>
<text text-anchor="start" x="410.5" y="-110.8" font-family="Helvetica,sans-Serif" font-size="14.00">slf4j&#45;api</text>
<text text-anchor="start" x="420" y="-100" font-family="Helvetica,sans-Serif" font-size="10.00">1.7.24</text>
</g>
<!-- org.jacop:jacop:jar:compile&#45;&gt;org.slf4j:slf4j&#45;api:jar:compile -->
<g id="edge9" class="edge">
<title>org.jacop:jacop:jar:compile&#45;&gt;org.slf4j:slf4j&#45;api:jar:compile</title>
<path fill="none" stroke="black" d="M302.31,-183.71C326.69,-172.89 362.64,-156.34 393,-140 393.19,-139.9 393.39,-139.79 393.58,-139.69"/>
<polygon fill="black" stroke="black" points="395.41,-142.67 402.41,-134.72 391.98,-136.57 395.41,-142.67"/>
</g>
<!-- org.slf4j:slf4j&#45;log4j12:jar:compile -->
<g id="node11" class="node">
<title>org.slf4j:slf4j&#45;log4j12:jar:compile</title>
<path fill="none" stroke="black" d="M560.5,-135C560.5,-135 495.5,-135 495.5,-135 489.5,-135 483.5,-129 483.5,-123 483.5,-123 483.5,-105 483.5,-105 483.5,-99 489.5,-93 495.5,-93 495.5,-93 560.5,-93 560.5,-93 566.5,-93 572.5,-99 572.5,-105 572.5,-105 572.5,-123 572.5,-123 572.5,-129 566.5,-135 560.5,-135"/>
<text text-anchor="start" x="510.5" y="-124" font-family="Helvetica,sans-Serif" font-size="10.00">org.slf4j</text>
<text text-anchor="start" x="491.5" y="-110.8" font-family="Helvetica,sans-Serif" font-size="14.00">slf4j&#45;log4j12</text>
<text text-anchor="start" x="514" y="-100" font-family="Helvetica,sans-Serif" font-size="10.00">1.7.24</text>
</g>
<!-- org.jacop:jacop:jar:compile&#45;&gt;org.slf4j:slf4j&#45;log4j12:jar:compile -->
<g id="edge11" class="edge">
<title>org.jacop:jacop:jar:compile&#45;&gt;org.slf4j:slf4j&#45;log4j12:jar:compile</title>
<path fill="none" stroke="black" d="M302.11,-189.76C341.41,-180.67 414.74,-162.42 475,-140 475.88,-139.67 476.76,-139.34 477.64,-139"/>
<polygon fill="black" stroke="black" points="479.28,-142.11 487.21,-135.08 476.63,-135.63 479.28,-142.11"/>
</g>
<!-- org.hamcrest:hamcrest&#45;core:jar:test -->
<g id="node4" class="node">
<title>org.hamcrest:hamcrest&#45;core:jar:test</title>
<path fill="none" stroke="black" d="M167,-52C167,-52 87,-52 87,-52 81,-52 75,-46 75,-40 75,-40 75,-12 75,-12 75,-6 81,0 87,0 87,0 167,0 167,0 173,0 179,-6 179,-12 179,-12 179,-40 179,-40 179,-46 173,-52 167,-52"/>
<text text-anchor="start" x="98" y="-41" font-family="Helvetica,sans-Serif" font-size="10.00">org.hamcrest</text>
<text text-anchor="start" x="83" y="-27.8" font-family="Helvetica,sans-Serif" font-size="14.00">hamcrest&#45;core</text>
<text text-anchor="start" x="120" y="-17" font-family="Helvetica,sans-Serif" font-size="10.00">1.3</text>
<text text-anchor="start" x="115.5" y="-7" font-family="Helvetica,sans-Serif" font-size="10.00">(test)</text>
</g>
<!-- junit:junit:jar:test&#45;&gt;org.hamcrest:hamcrest&#45;core:jar:test -->
<g id="edge2" class="edge">
<title>junit:junit:jar:test&#45;&gt;org.hamcrest:hamcrest&#45;core:jar:test</title>
<path fill="none" stroke="black" d="M127,-87.66C127,-79.7 127,-70.76 127,-62.24"/>
<polygon fill="black" stroke="black" points="130.5,-62.16 127,-52.16 123.5,-62.16 130.5,-62.16"/>
</g>
<!-- org.scala&#45;lang:scala&#45;reflect:jar:compile -->
<g id="node7" class="node">
<title>org.scala&#45;lang:scala&#45;reflect:jar:compile</title>
<path fill="none" stroke="black" d="M274.5,-47C274.5,-47 209.5,-47 209.5,-47 203.5,-47 197.5,-41 197.5,-35 197.5,-35 197.5,-17 197.5,-17 197.5,-11 203.5,-5 209.5,-5 209.5,-5 274.5,-5 274.5,-5 280.5,-5 286.5,-11 286.5,-17 286.5,-17 286.5,-35 286.5,-35 286.5,-41 280.5,-47 274.5,-47"/>
<text text-anchor="start" x="211.5" y="-36" font-family="Helvetica,sans-Serif" font-size="10.00">org.scala&#45;lang</text>
<text text-anchor="start" x="205.5" y="-22.8" font-family="Helvetica,sans-Serif" font-size="14.00">scala&#45;reflect</text>
<text text-anchor="start" x="228" y="-12" font-family="Helvetica,sans-Serif" font-size="10.00">2.13.1</text>
</g>
<!-- org.scala&#45;lang:scala&#45;compiler:jar:compile&#45;&gt;org.scala&#45;lang:scala&#45;reflect:jar:compile -->
<g id="edge5" class="edge">
<title>org.scala&#45;lang:scala&#45;compiler:jar:compile&#45;&gt;org.scala&#45;lang:scala&#45;reflect:jar:compile</title>
<path fill="none" stroke="black" d="M310.67,-92.62C298.68,-81.16 283.55,-66.7 270.55,-54.28"/>
<polygon fill="black" stroke="black" points="272.82,-51.61 263.18,-47.23 267.99,-56.67 272.82,-51.61"/>
</g>
<!-- jline:jline:jar:compile -->
<g id="node8" class="node">
<title>jline:jline:jar:compile</title>
<path fill="none" stroke="black" d="M347,-47C347,-47 317,-47 317,-47 311,-47 305,-41 305,-35 305,-35 305,-17 305,-17 305,-11 311,-5 317,-5 317,-5 347,-5 347,-5 353,-5 359,-11 359,-17 359,-17 359,-35 359,-35 359,-41 353,-47 347,-47"/>
<text text-anchor="start" x="323" y="-36" font-family="Helvetica,sans-Serif" font-size="10.00">jline</text>
<text text-anchor="start" x="319.5" y="-22.8" font-family="Helvetica,sans-Serif" font-size="14.00">jline</text>
<text text-anchor="start" x="318" y="-12" font-family="Helvetica,sans-Serif" font-size="10.00">2.14.6</text>
</g>
<!-- org.scala&#45;lang:scala&#45;compiler:jar:compile&#45;&gt;jline:jline:jar:compile -->
<g id="edge6" class="edge">
<title>org.scala&#45;lang:scala&#45;compiler:jar:compile&#45;&gt;jline:jline:jar:compile</title>
<path fill="none" stroke="black" d="M332,-92.62C332,-82.12 332,-69.11 332,-57.45"/>
<polygon fill="black" stroke="black" points="335.5,-57.23 332,-47.23 328.5,-57.23 335.5,-57.23"/>
</g>
<!-- org.fusesource.jansi:jansi:jar:compile -->
<g id="node9" class="node">
<title>org.fusesource.jansi:jansi:jar:compile</title>
<path fill="none" stroke="black" d="M469,-47C469,-47 389,-47 389,-47 383,-47 377,-41 377,-35 377,-35 377,-17 377,-17 377,-11 383,-5 389,-5 389,-5 469,-5 469,-5 475,-5 481,-11 481,-17 481,-17 481,-35 481,-35 481,-41 475,-47 469,-47"/>
<text text-anchor="start" x="385" y="-36" font-family="Helvetica,sans-Serif" font-size="10.00">org.fusesource.jansi</text>
<text text-anchor="start" x="415" y="-22.8" font-family="Helvetica,sans-Serif" font-size="14.00">jansi</text>
<text text-anchor="start" x="419.5" y="-12" font-family="Helvetica,sans-Serif" font-size="10.00">1.12</text>
</g>
<!-- org.scala&#45;lang:scala&#45;compiler:jar:compile&#45;&gt;org.fusesource.jansi:jansi:jar:compile -->
<g id="edge7" class="edge">
<title>org.scala&#45;lang:scala&#45;compiler:jar:compile&#45;&gt;org.fusesource.jansi:jansi:jar:compile</title>
<path fill="none" stroke="black" d="M354.99,-92.62C368.03,-81.05 384.52,-66.43 398.63,-53.93"/>
<polygon fill="black" stroke="black" points="401.02,-56.49 406.18,-47.23 396.37,-51.25 401.02,-56.49"/>
</g>
<!-- log4j:log4j:jar:compile -->
<g id="node12" class="node">
<title>log4j:log4j:jar:compile</title>
<path fill="none" stroke="black" d="M543,-47C543,-47 513,-47 513,-47 507,-47 501,-41 501,-35 501,-35 501,-17 501,-17 501,-11 507,-5 513,-5 513,-5 543,-5 543,-5 549,-5 555,-11 555,-17 555,-17 555,-35 555,-35 555,-41 549,-47 543,-47"/>
<text text-anchor="start" x="517.5" y="-36" font-family="Helvetica,sans-Serif" font-size="10.00">log4j</text>
<text text-anchor="start" x="513.5" y="-22.8" font-family="Helvetica,sans-Serif" font-size="14.00">log4j</text>
<text text-anchor="start" x="514" y="-12" font-family="Helvetica,sans-Serif" font-size="10.00">1.2.17</text>
</g>
<!-- org.slf4j:slf4j&#45;log4j12:jar:compile&#45;&gt;log4j:log4j:jar:compile -->
<g id="edge10" class="edge">
<title>org.slf4j:slf4j&#45;log4j12:jar:compile&#45;&gt;log4j:log4j:jar:compile</title>
<path fill="none" stroke="black" d="M528,-92.62C528,-82.12 528,-69.11 528,-57.45"/>
<polygon fill="black" stroke="black" points="531.5,-57.23 528,-47.23 524.5,-57.23 531.5,-57.23"/>
</g>
</g>
</svg>
